# xmcd
#
# Track frame offsets:
#	150
#	15104
#	30879
#	45008
#	60863
#	77257
#	95126
#	114847
#	130730
#	149030
#	164158
#	182607
#	198921
#	213740
#	232261
#	248861
#	266334
#	280406
#	299890
#	315018
#	330950
#
# Disc length: 4686 seconds
#
# Revision: 0
# Processed by: cddbd v1.5.2PL0 Copyright (c) Steve Scherf et al.
# Submitted via: EasyCDDAExtractor 9.1.3.1
#
DISCID=1b124c15
DTITLE=Westlife - Turnaround
DYEAR=2003
DGENRE=Pop
TTITLE0=Mandy
TTITLE1=Hey Whatever
TTITLE2=Heal
TTITLE3=Obvious
TTITLE4=When a woman loves a man
TTITLE5=On my shoulder
TTITLE6=Turnaround
TTITLE7=I did it for you
TTITLE8=Thank you
TTITLE9=To be with you
TTITLE10=home
TTITLE11=lost in you
TTITLE12=What do they know
TTITLE13=Swear it again
TTITLE14=If i let you go
TTITLE15=my love
TTITLE16=Uptown girl
TTITLE17=Queen of my heart
TTITLE18=Against all odds
TTITLE19=world of our own
TTITLE20=Unbreakable
EXTD=
EXTT0=
EXTT1=
EXTT2=
EXTT3=
EXTT4=
EXTT5=
EXTT6=
EXTT7=
EXTT8=
EXTT9=
EXTT10=
EXTT11=
EXTT12=
EXTT13=
EXTT14=
EXTT15=
EXTT16=
EXTT17=
EXTT18=
EXTT19=
EXTT20=
PLAYORDER=
